<svg width="48" height="48" viewBox="0 0 48 48" fill="none" xmlns="http://www.w3.org/2000/svg">
    <path d="M10 28C9.46957 28 8.96086 27.7893 8.58579 27.4142C8.21071 27.0391 8 26.5304 8 26V10.004C8 9.47356 8.21071 8.96486 8.58579 8.58978C8.96086 8.21471 9.46957 8.004 10 8.004H26C26.5304 8.004 27.0391 8.21471 27.4142 8.58978C27.7893 8.96486 28 9.47356 28 10.004V26C28 26.5304 27.7893 27.0391 27.4142 27.4142C27.0391 27.7893 26.5304 28 26 28H10ZM38 28C37.4696 28 36.9609 27.7893 36.5858 27.4142C36.2107 27.0391 36 26.5304 36 26V10.004C36 9.47356 36.2107 8.96486 36.5858 8.58978C36.9609 8.21471 37.4696 8.004 38 8.004H53.996C54.5264 8.004 55.0351 8.21471 55.4102 8.58978C55.7853 8.96486 55.996 9.47356 55.996 10.004V26C55.996 26.5304 55.7853 27.0391 55.4102 27.4142C55.0351 27.7893 54.5264 28 53.996 28H38ZM10 56C9.46957 56 8.96086 55.7893 8.58579 55.4142C8.21071 55.0391 8 54.5304 8 54V38C8 37.4696 8.21071 36.9609 8.58579 36.5858C8.96086 36.2107 9.46957 36 10 36H26C26.5304 36 27.0391 36.2107 27.4142 36.5858C27.7893 36.9609 28 37.4696 28 38V54C28 54.5304 27.7893 55.0391 27.4142 55.4142C27.0391 55.7893 26.5304 56 26 56H10ZM38 56C37.4696 56 36.9609 55.7893 36.5858 55.4142C36.2107 55.0391 36 54.5304 36 54V38C36 37.4696 36.2107 36.9609 36.5858 36.5858C36.9609 36.2107 37.4696 36 38 36H53.996C54.5264 36 55.0351 36.2107 55.4102 36.5858C55.7853 36.9609 55.996 37.4696 55.996 38V54C55.996 54.5304 55.7853 55.0391 55.4102 55.4142C55.0351 55.7893 54.5264 56 53.996 56H38Z" fill="#222222"/>
</svg>
